<?xml version="1.0" standalone="no"?><!DOCTYPE svg PUBLIC "-//W3C//DTD SVG 1.1//EN" "http://www.w3.org/Graphics/SVG/1.1/DTD/svg11.dtd"><svg t="1627880637134" class="icon" viewBox="0 0 1024 1024" version="1.1" xmlns="http://www.w3.org/2000/svg" p-id="5541" data-spm-anchor-id="a313x.7781069.0.i18" xmlns:xlink="http://www.w3.org/1999/xlink" width="200" height="200"><defs><style type="text/css"></style></defs><path d="M868 923l-53.2-138.2c-4.2-10.2-14-16.8-24.8-16.8-9 0-17.2 4.4-22.2 11.8s-6 16.8-2.8 25l52 138.2c4.2 10.2 14 17 25 17h1c9 0 17.4-4.4 22.4-11.8 5-7.6 6-17 2.6-25.2zM235.2 768c-11 0-20.8 6.6-24.8 16.8l-53.2 138.2c-3.4 8.4-2.4 17.8 2.6 25.2 5 7.4 13.4 11.8 22.4 11.8h1c11 0 20.8-6.6 25-17l52-138.2c3.4-8.2 2.4-17.6-2.8-25-4.8-7.4-13.2-11.8-22.2-11.8z m278 0h-2.2c-14.8 0-26.8 12-26.8 26.8v72.2c0 14.8 12 28.8 26.8 28.8h2.2c14.8 0 26.8-14 26.8-28.8v-72.2c0-14.8-12-26.8-26.8-26.8zM848 256H176c-8.8 0-16 7.2-16 16v352c0 8.8 7.2 16 16 16h672c8.8 0 16-7.2 16-16V272c0-8.8-7.2-16-16-16z" p-id="5542" data-spm-anchor-id="a313x.7781069.0.i16" class="" fill="#3478f6"></path><path d="M896 160H127.8C92.6 160 64 188.6 64 223.8v448.4c0 35.2 28.6 63.8 63.8 63.8H896c35.4 0 64-28.6 64-64V224c0-35.4-28.6-64-64-64z m8 488c0 17.6-14.4 32-32 32H152c-17.6 0-32-14.4-32-32V248c0-17.6 14.4-32 32-32h729.2c6 0 11.8 2.4 16 6.6 4.2 4.2 6.6 10 6.6 16V648zM512 64c-26.8-0.4-48.8 24.4-48.8 51.2h97.4c0.2-26.8-21.8-51.6-48.6-51.2z" p-id="5543" data-spm-anchor-id="a313x.7781069.0.i19" class="" fill="#3478f6"></path></svg>