<?xml version="1.0" standalone="no"?><!DOCTYPE svg PUBLIC "-//W3C//DTD SVG 1.1//EN" "http://www.w3.org/Graphics/SVG/1.1/DTD/svg11.dtd"><svg t="1627880468146" class="icon" viewBox="0 0 1024 1024" version="1.1" xmlns="http://www.w3.org/2000/svg" p-id="4836" xmlns:xlink="http://www.w3.org/1999/xlink" width="200" height="200"><defs><style type="text/css"></style></defs><path d="M923.6 363.4c2.6-3.2 2.4-7.6-0.4-10.6-23-24.2-122.6-127.4-178.2-167.4C704 156 664 128 620 128s-44 16-108 16-64-16-108-16-84 28-125 57.4c-55.6 40-155.2 143.2-178.2 167.4-2.8 3-3 7.4-0.4 10.6l123.4 128c4.8 5.8 14.2 2.4 14.2-5v-89.8c0-9 6.4-17 15.2-18.4 11.2-1.8 20.8 7 20.8 17.8v484c0 8.8 7.2 16 16 16h444c8.8 0 16-7.2 16-16V396.6c0-9 6.4-17 15.2-18.4 11.2-1.8 20.8 7 20.8 17.8v90.4c0 7.6 9.4 10.8 14.2 5l123.4-128zM512 286c-60 0-108-25.4-108-72 0-60 48-21.4 108-21.4 59.6 0 108-38.6 108 21.4 0 46.6-48.4 72-108 72z" p-id="4837" fill="#3478f6"></path></svg>