<?xml version="1.0" standalone="no"?><!DOCTYPE svg PUBLIC "-//W3C//DTD SVG 1.1//EN" "http://www.w3.org/Graphics/SVG/1.1/DTD/svg11.dtd"><svg t="1626769741269" class="icon" viewBox="0 0 1024 1024" version="1.1" xmlns="http://www.w3.org/2000/svg" p-id="4459" xmlns:xlink="http://www.w3.org/1999/xlink" width="400" height="400"><defs><style type="text/css"></style></defs><path d="M292 128.2c108.2 0 200 55.8 200 164V892c0 4.4-6.2 5.4-7.6 1.4v-0.2c-20.6-68.4-76.4-135.2-164.6-141-68.4-4.4-133.8 25.8-186.2 74.2-3.2 3-8.6 5.8-13.2 5.8h-9c-7.4 0-15.2-5.4-15.2-12.2V240.4C96 176.2 183.8 128.2 292 128.2z m440-0.2c-108.2 0-200 55.8-200 164v599.8c0 4.4 6.2 5.4 7.6 1.4v-0.2c20.6-68.4 78.8-135.8 164.6-141 65.8-4 127.8 22 186.2 74.2 3.2 2.8 8.6 5.8 13.2 5.8h9c7.4 0 15.2-5.4 15.2-12.2V240c0.2-64-87.6-112-195.8-112z" p-id="4460" fill="#3478f6"></path></svg>