<?xml version="1.0" standalone="no"?><!DOCTYPE svg PUBLIC "-//W3C//DTD SVG 1.1//EN" "http://www.w3.org/Graphics/SVG/1.1/DTD/svg11.dtd"><svg t="1627892188425" class="icon" viewBox="0 0 1024 1024" version="1.1" xmlns="http://www.w3.org/2000/svg" p-id="7294" xmlns:xlink="http://www.w3.org/1999/xlink" width="200" height="200"><defs><style type="text/css"></style></defs><path d="M184 512m-56 0a56 56 0 1 0 112 0 56 56 0 1 0-112 0Z" p-id="7295" fill="#ffffff"></path><path d="M184 264m-56 0a56 56 0 1 0 112 0 56 56 0 1 0-112 0Z" p-id="7296" fill="#ffffff"></path><path d="M184 760m-56 0a56 56 0 1 0 112 0 56 56 0 1 0-112 0Z" p-id="7297" fill="#ffffff"></path><path d="M864 480H383c-17.6 0-32 14.4-32 32s14.4 32 32 32H864c17.6 0 32-14.4 32-32s-14.4-32-32-32z m0 248H383c-17.6 0-32 14.4-32 32s14.4 32 32 32H864c17.6 0 32-14.4 32-32s-14.4-32-32-32zM383 296H864c17.6 0 32-14.4 32-32s-14.4-32-32-32H383c-17.6 0-32 14.4-32 32s14.4 32 32 32z" p-id="7298" fill="#ffffff"></path></svg>