<?xml version="1.0" standalone="no"?><!DOCTYPE svg PUBLIC "-//W3C//DTD SVG 1.1//EN" "http://www.w3.org/Graphics/SVG/1.1/DTD/svg11.dtd"><svg t="1627892074520" class="icon" viewBox="0 0 1024 1024" version="1.1" xmlns="http://www.w3.org/2000/svg" p-id="6770" xmlns:xlink="http://www.w3.org/1999/xlink" width="200" height="200"><defs><style type="text/css"></style></defs><path d="M512 247.6c-48.6 0-93.8 20.2-127.8 56.8-34 36.6-52.2 66.4-52.2 119.2 0 15.4 11.8 28 26.4 28 14.6 0 26.4-12.6 26.4-28 0-34.6 13.2-64.8 38-87 23.6-21.2 55.4-33 89.4-33s65.8 11.6 89.4 33c24.8 22.4 38 52.4 38 87 0 15.4 11.8 28 26.4 28 14.6 0 26.4-12.6 26.4-28 0-52.8-18.4-82.6-52.2-119.2-34.4-36.8-79.6-56.8-128.2-56.8z" p-id="6771" fill="#ffffff"></path><path d="M914.2 557.8C884.6 528.2 845.6 512 804 512h-16c-4.4 0-8-3.6-8-8v-75.6c0-71.4-28-138.6-78.8-189.4C650.6 188 583.4 160 512 160c-71.4 0-138.6 28-189.2 78.8-50.8 50.8-78.8 118-78.8 189.4V504c0 4.4-3.6 8-8 8h-16c-41.6 0-80.6 16.2-110.2 45.8C80.2 587.4 64 626.4 64 668v23.6c0 41.6 16.2 80.8 45.8 110.4 29.6 29.6 68.8 46 110.2 46h11.2c8 0 16 2.8 21.8 8.2 5 4.6 11.8 7.6 19 7.6 15.4 0 28-12.6 28-28.2V428.2c0-56.4 22.2-109.6 62.4-149.8 40.2-40.2 93.4-62.4 149.6-62.4 56.4 0 109.6 22.2 149.6 62.4 40.2 40.2 62.4 93.4 62.4 149.8v407.6c0 15.6 12.6 28.2 28 28.2 7.2 0 14-3 19-7.6 5.8-5.4 13.8-8.2 21.8-8.2h11.2c41.4 0 80.6-16.4 110.2-46 29.6-29.6 45.8-68.8 45.8-110.4V668c0-41.6-16.2-80.6-45.8-110.2z" p-id="6772" fill="#ffffff"></path></svg>