<?xml version="1.0" standalone="no"?><!DOCTYPE svg PUBLIC "-//W3C//DTD SVG 1.1//EN" "http://www.w3.org/Graphics/SVG/1.1/DTD/svg11.dtd"><svg t="1626702751131" class="icon" viewBox="0 0 1024 1024" version="1.1" xmlns="http://www.w3.org/2000/svg" p-id="4717" xmlns:xlink="http://www.w3.org/1999/xlink" width="400" height="400"><defs><style type="text/css"></style></defs><path d="M960 256c0-35.2-28.8-64-64-64H128c-35.2 0-64 28.8-64 64v96h896v-96zM64 768c0 35.2 28.8 64 64 64h768c35.2 0 64-28.8 64-64V448H64v320z m284-96h328c15.4 0 28 12.6 28 28s-12.6 28-28 28H348c-15.4 0-28-12.6-28-28s12.6-28 28-28z m-144 0h24c15.4 0 28 12.6 28 28s-12.6 28-28 28h-24c-15.4 0-28-12.6-28-28s12.6-28 28-28z" p-id="4718" fill="#ffffff"></path></svg>