<?xml version="1.0" standalone="no"?><!DOCTYPE svg PUBLIC "-//W3C//DTD SVG 1.1//EN" "http://www.w3.org/Graphics/SVG/1.1/DTD/svg11.dtd"><svg t="1630897978526" class="icon" viewBox="0 0 1024 1024" version="1.1" xmlns="http://www.w3.org/2000/svg" p-id="4195" xmlns:xlink="http://www.w3.org/1999/xlink" width="200" height="200"><defs><style type="text/css"></style></defs><path d="M512 96C282.2 96 96 282.2 96 512s186.2 416 416 416 416-186.2 416-416S741.8 96 512 96z m181 448H544v149c0 17.6-14.4 32-32 32-8.8 0-16.8-3.6-22.6-9.4-5.8-5.8-9.4-13.8-9.4-22.6V544h-149c-8.8 0-16.8-3.6-22.6-9.4-5.8-5.8-9.4-13.8-9.4-22.6 0-17.6 14.4-32 32-32H480v-149c0-17.6 14.4-32 32-32s32 14.4 32 32V480h149c17.6 0 32 14.4 32 32s-14.4 32-32 32z" p-id="4196" fill="#ffffff" data-spm-anchor-id="a313x.7781069.0.i0" class=""></path></svg>