<?xml version="1.0" standalone="no"?><!DOCTYPE svg PUBLIC "-//W3C//DTD SVG 1.1//EN" "http://www.w3.org/Graphics/SVG/1.1/DTD/svg11.dtd"><svg t="1626769754976" class="icon" viewBox="0 0 1024 1024" version="1.1" xmlns="http://www.w3.org/2000/svg" p-id="4662" xmlns:xlink="http://www.w3.org/1999/xlink" width="400" height="400"><defs><style type="text/css"></style></defs><path d="M193.8 540.6V726c0 5.8 3 11 8 14l264 151.8c10.6 6.2 24-1.6 24-14v-187.6c0-5.8-3-11-8-14l-264-149.8c-10.8-5.8-24 2-24 14.2z m368 351.2L826 740c5-2.8 8-8.2 8-14v-187.4c0-12.4-13.2-20-24-14l-264 151.8c-5 2.8-8 8.2-8 14V878c-0.2 12.2 13.2 20 23.8 13.8z" p-id="4663" fill="#3478f6"></path><path d="M498 130.2L74 377.8c-10.8 6.2-10.8 21.6 0 27.8l424 235.6c9.8 5.6 22 5.6 31.8 0L906 425.8c10.6-6.2 14 1.6 14 14v306.8c0 13.6 7.8 20 22 20 8.8 0 20-6.4 20-20V403c0-5.8-3-11-8-14L529.8 130.2c-9.8-5.6-22-5.6-31.8 0z" p-id="4664" fill="#3478f6"></path></svg>