<?xml version="1.0" standalone="no"?><!DOCTYPE svg PUBLIC "-//W3C//DTD SVG 1.1//EN" "http://www.w3.org/Graphics/SVG/1.1/DTD/svg11.dtd"><svg t="1628138988522" class="icon" viewBox="0 0 1024 1024" version="1.1" xmlns="http://www.w3.org/2000/svg" p-id="4174" xmlns:xlink="http://www.w3.org/1999/xlink" width="200" height="200"><defs><style type="text/css"></style></defs><path d="M281 320v480c0 17.6 14.4 32 32 32h400c17.6 0 32-14.4 32-32V320c0-17.6-14.4-32-32-32h-400c-17.6 0-32 14.4-32 32z m362-158h-34c0-11.2-2-22-5.4-32-4.2-12-10.6-22.8-18.8-32-17.6-19.8-43.2-34-71.8-34s-54.2 14.2-71.8 34c-8.2 9.2-14.6 20-18.8 32-3.4 10-5.4 20.8-5.4 32H388c-19.2 0-35 15.8-35 35V228c0 2.2 1.8 4 4 4h312c2.2 0 4-1.8 4-4V192c0-16.6-13.4-30-30-30z m-125.8 31c-21 2.6-38.6-15-35.8-35.8 1.8-14.2 13.4-25.8 27.6-27.6 21-2.6 38.6 15 35.8 35.8-1.8 14.4-13.4 25.8-27.6 27.6z" p-id="4175" fill="#ffffff"></path><path d="M800 96h-150.4c-3.4 0-5.2 3.8-3.2 6.4 5.8 7.8 10.6 16.2 14 25.6 0.6 1.6 2 2.6 3.8 2.6h1c37.4 0 53.8 29.8 55 67V228c0 2.2 1.8 4 4 4h40.6c17.6 0 32 14.4 32 32v594.8c0 17.6-14.4 32-32 32h-506c-17.6 0-32-14.4-32-32V264c0-17.6 14.4-32 32-32h42.6c2.2 0 4-1.8 4-4v-17.6c0-38.2 11.2-73.4 55.2-73.4h0.6c1.8 0 3.6-1.2 3.8-3.2 3-13.8 8.2-23.4 14.4-31.6 2-2.6 0.2-6.4-3.2-6.4l-152.6-0.2C188.6 95.8 160 124.2 160 159.4V848c0 83.4 28.6 112 64 112h577c34.8 0 63-28.2 63-63V160c0-35.4-28.6-64-64-64z" p-id="4176" fill="#ffffff"></path></svg>