<?xml version="1.0" standalone="no"?><!DOCTYPE svg PUBLIC "-//W3C//DTD SVG 1.1//EN" "http://www.w3.org/Graphics/SVG/1.1/DTD/svg11.dtd"><svg t="1626702105985" class="icon" viewBox="0 0 1024 1024" version="1.1" xmlns="http://www.w3.org/2000/svg" p-id="4154" xmlns:xlink="http://www.w3.org/1999/xlink" width="400" height="400"><defs><style type="text/css"></style></defs><path d="M921.2 294.6L706 513.8c-1.6 1.6-1.6 4 0 5.6l150.6 160.4c10.2 10.2 10.2 26.6 0 36.8-5 5-11.8 7.6-18.4 7.6s-13.4-2.6-18.4-7.6l-150-159.8c-1.6-1.6-4.2-1.6-5.8 0L627.4 594c-30.6 31-71.2 48.2-114.8 48.4-44.2 0.2-86.2-18.4-117.2-49.8l-35.2-35.8c-1.6-1.6-4.2-1.6-5.8 0l-150 159.8c-5 5-11.8 7.6-18.4 7.6s-13.4-2.6-18.4-7.6c-10.2-10.2-10.2-26.6 0-36.8l150.6-160.4c1.4-1.6 1.4-4 0-5.6L102.8 294.6c-2.6-2.6-6.8-0.8-6.8 2.8V736c0 35.2 28.8 64 64 64h704c35.2 0 64-28.8 64-64V297.4c0-3.6-4.4-5.2-6.8-2.8z" p-id="4155" fill="#ffffff"></path><path d="M512 590.2c29.6 0 57.4-11.6 78.2-32.8L904 238c-11-8.8-24.6-14-39.6-14H159.8c-15 0-28.8 5.2-39.6 14L434 557.4c20.6 21 48.4 32.8 78 32.8z" p-id="4156" fill="#ffffff"></path></svg>