<?xml version="1.0" encoding="UTF-8"?>
<svg xmlns="http://www.w3.org/2000/svg" xmlns:xlink="http://www.w3.org/1999/xlink" viewBox="0 0 60 60" width="60px" height="60px">
<g id="surface117908051">
<path style="fill-rule:nonzero;fill:rgb(20.392157%,47.058824%,96.470588%);fill-opacity:1;stroke-width:1;stroke-linecap:butt;stroke-linejoin:round;stroke:rgb(80.000001%,80.000001%,80.000001%);stroke-opacity:1;stroke-miterlimit:10;" d="M 89.886599 12.999497 L 126.127743 42.650318 L 126.127743 34.403965 C 126.127743 31.238357 128.69628 28.669821 131.861888 28.669821 L 137.596032 28.669821 C 140.76164 28.669821 143.330176 31.238357 143.330176 34.403965 L 143.330176 56.720939 L 152.489036 64.212503 C 152.624222 64.313893 152.759408 64.415282 152.883329 64.539203 L 152.973453 64.59553 C 154.145066 65.688285 154.798465 67.209129 154.798465 68.797565 C 154.798465 71.963174 152.229929 74.53171 149.064321 74.53171 L 143.330176 74.53171 L 143.330176 137.596032 C 143.330176 143.938514 138.20437 149.064321 131.861888 149.064321 L 40.138109 149.064321 C 33.795627 149.064321 28.669821 143.938514 28.669821 137.596032 L 28.669821 74.53171 L 22.935676 74.53171 C 19.770068 74.53171 17.201532 71.963174 17.201532 68.797565 C 17.201532 67.209129 17.866197 65.69955 19.026544 64.606796 L 19.026544 64.59553 L 19.240589 64.426548 C 19.308182 64.358955 19.375775 64.302627 19.454634 64.257565 L 81.989477 13.100886 C 83.059701 12.053194 84.501686 11.467387 85.999999 11.467387 C 87.441984 11.467387 88.827641 12.019397 89.886599 12.999497 Z M 103.202432 131.861888 L 126.127743 131.861888 L 126.127743 85.999999 L 103.202432 85.999999 Z M 103.202432 131.861888 " transform="matrix(0.346744,0,0,0.346744,0.18,0.18)"/>
<path style=" stroke:none;fill-rule:nonzero;fill:rgb(20.392157%,47.058824%,96.470588%);fill-opacity:1;" d="M 30 4.15625 C 29.480469 4.15625 28.980469 4.359375 28.609375 4.722656 L 6.925781 22.460938 C 6.898438 22.476562 6.875 22.496094 6.851562 22.519531 L 6.777344 22.578125 L 6.777344 22.582031 C 6.375 22.960938 6.144531 23.484375 6.144531 24.035156 C 6.144531 25.132812 7.035156 26.023438 8.132812 26.023438 L 10.121094 26.023438 L 10.121094 47.890625 C 10.121094 50.089844 11.898438 51.867188 14.097656 51.867188 L 45.902344 51.867188 C 48.101562 51.867188 49.878906 50.089844 49.878906 47.890625 L 49.878906 26.023438 L 51.867188 26.023438 C 52.964844 26.023438 53.855469 25.132812 53.855469 24.035156 C 53.855469 23.484375 53.628906 22.957031 53.222656 22.578125 L 53.191406 22.558594 C 53.148438 22.515625 53.101562 22.480469 53.054688 22.445312 L 49.878906 19.847656 L 49.878906 12.109375 C 49.878906 11.011719 48.988281 10.121094 47.890625 10.121094 L 45.902344 10.121094 C 44.804688 10.121094 43.914062 11.011719 43.914062 12.109375 L 43.914062 14.96875 L 31.347656 4.6875 C 30.980469 4.347656 30.5 4.15625 30 4.15625 Z M 35.964844 30 L 43.914062 30 L 43.914062 45.902344 L 35.964844 45.902344 Z M 35.964844 30 "/>
</g>
</svg>
