<svg xmlns="http://www.w3.org/2000/svg" id="icon-lzu0" viewBox="0 0 1024 1024"><path d="M404.180816 272.88790934H604.01323v38.385887H404.180816zM375.955899 498.12274934h259.10474v53.062844H375.955899z" fill="#FFFFFF"></path><path d="M450.46968 318.04777634h161.446527v185.719956H412.083793V318.04777634" fill="#59C2E0"></path><path d="M556.030871 309.58030134c-3.38699 9.031974-18.628445 16.370452-35.563396 18.063947-10.725469 0.564498-20.886439-0.564498-31.611907-0.564498-10.725469 0-22.579934 1.128997-28.789416 5.644983-5.080485 3.38699-6.209482 9.031974-12.983462 11.289967-2.822492 1.128997-6.77398 1.693495-10.16097 1.693495-11.854465 1.128997-24.837927-0.564498-34.434399-3.951488l1.128997-32.176406h152.414553z" fill="#FFFFFF"></path><path d="M772.233738 845.85373034H256.846748v-214.509372h537.966923z" fill="#F8E1BD"></path><path d="M184.026461 770.77545034v82.416758h89.755237v-140.560088h84.674752c19.757442-37.256891 75.642778-64.352811 141.689085-64.352811s121.931643 27.095921 141.689085 64.352811h82.416758v140.560088h103.867696v-237.653803h-88.061742v-56.449835H267.572216v56.449835H184.026461v36.692392" fill="#D9E1ED"></path><path d="M202.090408 741.98603434c-3.951488 6.209482-7.338479 12.418964-7.338479 20.886439 0 6.209482 5.080485 19.757442 5.080486 25.966924 0 14.676957-12.418964 21.450937-25.402426 29.353914-0.564498-68.3043-1.693495-136.044101-2.257993-204.348401 0-20.886439 79.594267 4.515987 94.835722 1.128996 11.854465-14.112459-2.257993-23.708931 0-56.449834 102.174201 2.822492 199.832415 0.564498 302.006615 3.38699l75.642778 1.693495c-7.338479 17.499449-28.789416 16.93495-50.240352 19.757442-21.450937 2.822492-42.901874-0.564498-64.352812-3.38699-21.450937-2.822492-44.030871-4.515987-64.352811 1.128997-19.192944 5.644983-36.692393 18.063947-57.014333 18.628445-15.241455 0.564498-31.047409-10.725469-45.724366-13.54796-13.54796-3.38699-28.224917-2.822492-41.772878 0.564498-10.16097 3.38699-14.112459 12.983462-21.450937 20.32194-14.112459 14.676957-24.273429 16.93495-43.466373 17.499449-28.789416 1.128997-55.885336 19.192944-52.498346 49.111356 1.693495 11.854465 7.902977 23.144432 10.16097 34.998898 1.128997 4.515987 1.128997 9.031974-0.564498 13.54796-1.693495 7.338479-6.77398 13.54796-11.289967 19.757442zM442.566703 848.11172334v-37.821389c0-38.950386 27.660419-71.126792 61.53032-71.126792s61.53032 32.176406 61.53032 71.126792v37.821389M464.582139 348.53068734c10.725469-7.338479 23.708931-11.854465 37.256891-11.854465 36.692393 0 66.046307 29.353914 66.046306 66.046306 0 36.692393-29.353914 66.046307-66.046306 66.046307-36.692393 0-66.046307-29.353914-66.046307-66.046307 0-13.54796 3.951488-25.966924 10.725469-36.127894" fill="#FFFFFF"></path><path d="M476.436604 193.29364234H547.563396v88.62624H476.436604z" fill="#F8E1BD"></path><path d="M604.01323 504.33223034H403.616318c-4.515987 0-7.902977-3.38699-7.902977-7.902976V310.70929834c0-4.515987 3.38699-7.902977 7.902977-7.902977 4.515987 0 7.902977 3.38699 7.902976 7.902977v177.816979h184.026461V318.61227534H442.566703c-4.515987 0-7.902977-3.38699-7.902976-7.902977 0-4.515987 3.38699-7.902977 7.902976-7.902977H604.01323c4.515987 0 7.902977 3.38699 7.902977 7.902977v185.719956c0 4.515987-3.38699 7.902977-7.902977 7.902976z" fill="#3B3D5E"></path><path d="M504.097023 476.67181234c-40.643881 0-73.949283-33.305402-73.949283-73.949284 0-14.676957 3.951488-28.224917 11.854465-40.643881 2.257993-3.951488 7.338479-4.515987 11.289967-2.257993s4.515987 7.338479 2.257993 11.289967C449.340684 380.70709334 445.953693 391.43256134 445.953693 402.72252834c0 32.176406 25.966924 58.14333 58.14333 58.14333 32.176406 0 58.14333-25.966924 58.14333-58.14333S536.273429 344.57919834 504.097023 344.57919834c-11.854465 0-23.144432 3.38699-32.740904 10.160971-3.38699 2.257993-8.467475 1.693495-11.289967-2.257994-2.257993-3.38699-1.693495-8.467475 2.257994-11.289967 12.418964-8.467475 27.095921-12.983462 42.337375-12.983462 40.643881 0 73.949283 33.305402 73.949284 73.949284S544.740904 476.67181234 504.097023 476.67181234z" fill="#3B3D5E"></path><path d="M493.371555 431.51194434c-2.257993 0-3.951488-0.564498-5.644984-2.257994l-16.370452-16.370452c-3.38699-3.38699-3.38699-8.467475 0-11.289967 3.38699-3.38699 8.467475-3.38699 11.289967 0l16.370452 16.370452c3.38699 3.38699 3.38699 8.467475 0 11.289967-1.693495 1.693495-3.38699 2.257993-5.644983 2.257994z" fill="#3B3D5E"></path><path d="M493.371555 431.51194434c-2.257993 0-3.951488-0.564498-5.644984-2.257994-3.38699-3.38699-3.38699-8.467475 0-11.289967L524.983462 380.70709334c3.38699-3.38699 8.467475-3.38699 11.289967 0 3.38699 3.38699 3.38699 8.467475 0 11.289967l-37.256891 37.25689c-1.693495 1.693495-3.38699 2.257993-5.644983 2.257994zM403.616318 327.64424834c-4.515987 0-7.902977-3.38699-7.902977-7.902977V248.04998134c0-4.515987 3.38699-7.902977 7.902977-7.902977 4.515987 0 7.902977 3.38699 7.902976 7.902977v72.255789c0.564498 3.951488-3.38699 7.338479-7.902976 7.338478zM604.01323 327.64424834c-4.515987 0-7.902977-3.38699-7.902976-7.902977V248.04998134c0-4.515987 3.38699-7.902977 7.902976-7.902977 4.515987 0 7.902977 3.38699 7.902977 7.902977v72.255789c0 3.951488-3.38699 7.338479-7.902977 7.338478zM167.09151 581.10400634H100.480706c-4.515987 0-7.902977-3.38699-7.902977-7.902977 0-4.515987 3.38699-7.902977 7.902977-7.902977h66.610804c4.515987 0 7.902977 3.38699 7.902977 7.902977 0 3.951488-3.38699 7.902977-7.902977 7.902977zM150.721058 543.28261634h-33.305402c-4.515987 0-7.902977-3.38699-7.902977-7.902976 0-4.515987 3.38699-7.902977 7.902977-7.902977h33.305402c4.515987 0 7.902977 3.38699 7.902977 7.902977 0 4.515987-3.951488 7.902977-7.902977 7.902976zM58.707828 581.10400634H42.337376c-4.515987 0-7.902977-3.38699-7.902977-7.902977 0-4.515987 3.38699-7.902977 7.902977-7.902977h16.370452c4.515987 0 7.902977 3.38699 7.902977 7.902977 0 3.951488-3.38699 7.902977-7.902977 7.902977zM904.890849 581.10400634h-66.610805c-4.515987 0-7.902977-3.38699-7.902977-7.902977 0-4.515987 3.38699-7.902977 7.902977-7.902977h66.610805c4.515987 0 7.902977 3.38699 7.902977 7.902977 0 3.951488-3.38699 7.902977-7.902977 7.902977zM888.520397 543.28261634h-33.305403c-4.515987 0-7.902977-3.38699-7.902976-7.902976 0-4.515987 3.38699-7.902977 7.902976-7.902977h33.305403c4.515987 0 7.902977 3.38699 7.902977 7.902977 0 4.515987-3.951488 7.902977-7.902977 7.902976zM976.017641 581.10400634H959.647189c-4.515987 0-7.902977-3.38699-7.902977-7.902977 0-4.515987 3.38699-7.902977 7.902977-7.902977h16.370452c4.515987 0 7.902977 3.38699 7.902976 7.902977 0 3.951488-3.38699 7.902977-7.902976 7.902977zM350.553473 785.45240734c-4.515987 0-7.902977-3.38699-7.902977-7.902977v-17.499449c0-4.515987 3.38699-7.902977 7.902977-7.902977 4.515987 0 7.902977 3.38699 7.902977 7.902977v17.499449c0 4.515987-3.38699 7.902977-7.902977 7.902977zM652.560088 785.45240734c-4.515987 0-7.902977-3.38699-7.902977-7.902977v-17.499449c0-4.515987 3.38699-7.902977 7.902977-7.902977 4.515987 0 7.902977 3.38699 7.902977 7.902977v17.499449c0 4.515987-3.38699 7.902977-7.902977 7.902977zM350.553473 826.66078634c-4.515987 0-7.902977-3.38699-7.902977-7.902977v-7.902977c0-4.515987 3.38699-7.902977 7.902977-7.902976 4.515987 0 7.902977 3.38699 7.902977 7.902976v7.902977c0 3.951488-3.38699 7.902977-7.902977 7.902977zM652.560088 826.66078634c-4.515987 0-7.902977-3.38699-7.902977-7.902977v-7.902977c0-4.515987 3.38699-7.902977 7.902977-7.902976 4.515987 0 7.902977 3.38699 7.902977 7.902976v7.902977c0 3.951488-3.38699 7.902977-7.902977 7.902977zM504.097023 187.08416034c-4.515987 0-7.902977-3.38699-7.902977-7.902977v-84.674752c0-4.515987 3.38699-7.902977 7.902977-7.902977 4.515987 0 7.902977 3.38699 7.902977 7.902977v84.110254c0 4.515987-3.38699 8.467475-7.902977 8.467475z" fill="#3B3D5E"></path><path d="M601.190739 281.91988234H407.003308c-4.515987 0-7.902977-3.38699-7.902977-7.902977 0-4.515987 3.38699-7.902977 7.902977-7.902977h193.622932c4.515987 0 7.902977 3.38699 7.902977 7.902977 0.564498 4.515987-3.38699 7.902977-7.338478 7.902977zM368.052922 559.08857034c-4.515987 0-7.902977-3.38699-7.902977-7.902977V456.91436934c0-4.515987 3.38699-7.902977 7.902977-7.902976s7.902977 3.38699 7.902977 7.902976v94.271224c0 3.951488-3.38699 7.902977-7.902977 7.902977zM640.141125 559.08857034c-4.515987 0-7.902977-3.38699-7.902977-7.902977V456.91436934c0-4.515987 3.38699-7.902977 7.902977-7.902976s7.902977 3.38699 7.902976 7.902976v94.271224c0 3.951488-3.38699 7.902977-7.902976 7.902977z" fill="#3B3D5E"></path><path d="M640.141125 503.76773234H368.052922c-4.515987 0-7.902977-3.38699-7.902977-7.902977s3.38699-7.902977 7.902977-7.902977h272.088203c4.515987 0 7.902977 3.38699 7.902976 7.902977s-3.38699 7.902977-7.902976 7.902977zM539.660419 281.91988234H468.533627c-4.515987 0-7.902977-3.38699-7.902977-7.902977V185.39066534c0-4.515987 3.38699-7.902977 7.902977-7.902977h71.126792c4.515987 0 7.902977 3.38699 7.902977 7.902977v88.62624c0 4.515987-3.38699 7.902977-7.902977 7.902977z m-63.223815-15.805954h54.75634V193.29364234h-54.75634v72.820286zM832.070562 858.27269434H728.202867c-4.515987 0-7.902977-3.38699-7.902977-7.902977v-132.657112h-73.949284c-2.822492 0-5.644983-1.693495-7.338478-4.515986-19.192944-36.127894-73.384785-60.401323-134.915105-60.401323-19.192944 0-37.821389 2.257993-55.320838 6.77398-7.902977 2.257993-15.805954 4.515987-22.579934 7.338478-3.951488 1.693495-9.031974-0.564498-10.16097-4.515987-1.693495-3.951488 0.564498-9.031974 4.515987-10.16097 7.902977-3.38699 16.370452-5.644983 24.837927-7.902977 18.628445-5.080485 38.385888-7.338479 59.272326-7.338478 64.91731 0 123.060639 25.966924 146.205072 64.352811H728.202867c4.515987 0 7.902977 3.38699 7.902976 7.902977v132.657111H824.167585v-221.84785h-80.158765c-4.515987 0-7.902977-3.38699-7.902977-7.902976v-48.546858h-457.24366v48.546858c0 4.515987-3.38699 7.902977-7.902977 7.902976H184.026461v28.789416c0 4.515987-3.38699 7.902977-7.902977 7.902977-4.515987 0-7.902977-3.38699-7.902977-7.902977V612.15141534c0-4.515987 3.38699-7.902977 7.902977-7.902977h86.368247V555.70158034c0-4.515987 3.38699-7.902977 7.902977-7.902977h473.049614c4.515987 0 7.902977 3.38699 7.902977 7.902977v48.546858h80.158765c4.515987 0 7.902977 3.38699 7.902977 7.902977v237.653803c0.564498 5.080485-3.38699 8.467475-7.338479 8.467476z" fill="#3B3D5E"></path><path d="M277.168688 858.27269434H176.123484c-4.515987 0-7.902977-3.38699-7.902977-7.902977v-82.416759c0-4.515987 3.38699-7.902977 7.902977-7.902977 4.515987 0 7.902977 3.38699 7.902977 7.902977v74.513782h85.23925v-132.657112c0-4.515987 3.38699-7.902977 7.902977-7.902976h80.158765c7.338479-12.418964 18.628445-23.144432 32.740904-32.740904 3.38699-2.257993 8.467475-1.693495 11.289967 2.257993 2.257993 3.38699 1.693495 8.467475-2.257993 11.289967-13.54796 9.031974-23.708931 19.757442-29.918413 31.611907-1.128997 2.822492-3.951488 4.515987-7.338478 4.515987H285.636163v132.657111c0 3.38699-3.951488 6.77398-8.467475 6.773981zM176.123484 738.03454634c-4.515987 0-7.902977-3.38699-7.902977-7.902977v-38.385888c0-4.515987 3.38699-7.902977 7.902977-7.902976 4.515987 0 7.902977 3.38699 7.902977 7.902976v38.385888c0 4.515987-3.38699 7.902977-7.902977 7.902977zM565.627343 856.01470034c-4.515987 0-7.902977-3.38699-7.902977-7.902977v-47.417861c0-29.353914-23.708931-53.627343-53.627343-53.627343-29.353914 0-53.627343 23.708931-53.627343 53.627343v47.417861c0 4.515987-3.38699 7.902977-7.902977 7.902977-4.515987 0-7.902977-3.38699-7.902976-7.902977v-47.417861c0-38.385888 31.047409-69.433297 69.433296-69.433296 38.385888 0 69.433297 31.047409 69.433297 69.433296v47.417861c0 3.951488-3.951488 7.902977-7.902977 7.902977z" fill="#3B3D5E"></path><path d="M992.952591 858.27269434H275.475193c-4.515987 0-7.902977-3.38699-7.902977-7.902977s3.38699-7.902977 7.902977-7.902977h717.477398c4.515987 0 7.902977 3.38699 7.902977 7.902977s-3.38699 7.902977-7.902977 7.902977zM211.68688 858.27269434h-62.094818c-4.515987 0-7.902977-3.38699-7.902977-7.902977s3.38699-7.902977 7.902977-7.902977h62.094818c4.515987 0 7.902977 3.38699 7.902977 7.902977s-3.38699 7.902977-7.902977 7.902977zM114.593164 858.27269434H26.531422c-4.515987 0-7.902977-3.38699-7.902977-7.902977s3.38699-7.902977 7.902977-7.902977h88.626241c4.515987 0 7.902977 3.38699 7.902976 7.902977s-3.951488 7.902977-8.467475 7.902977z" fill="#3B3D5E"></path></svg>