<?xml version="1.0" standalone="no"?><!DOCTYPE svg PUBLIC "-//W3C//DTD SVG 1.1//EN" "http://www.w3.org/Graphics/SVG/1.1/DTD/svg11.dtd"><svg t="1627909029022" class="icon" viewBox="0 0 1024 1024" version="1.1" xmlns="http://www.w3.org/2000/svg" p-id="4895" xmlns:xlink="http://www.w3.org/1999/xlink" width="200" height="200"><defs><style type="text/css"></style></defs><path d="M851.8 340.8H408.6c-42 0-76.2 34.2-76.2 76.2v308.6c0 42 34.2 76 76.2 76h253.6c5.6 0 11.2 2.4 15.2 6.4l126 116.2c7 6.8 18.6 4 18.6-5.8v-101.2c0-12 7.6-15.8 19.6-15.8h2c42 0 84.2-33.8 84.2-76V417c0.2-42.2-34-76.2-76-76.2z" p-id="4896" fill="#5756ce"></path><path d="M348.8 291.8h354.8V161.2c0-36-29.2-65.2-65.2-65.2H161.2C125.2 96 96 125.2 96 161.2v330.4c0 36 29.2 65.2 65.2 65.2h122.2v-199.8c0.2-36 29.4-65.2 65.4-65.2z" p-id="4897" fill="#5756ce"></path></svg>